<svg fill="none" height="400" viewBox="0 0 400 400" width="400" xmlns="http://www.w3.org/2000/svg"><g stroke="#000" stroke-linecap="round" stroke-linejoin="round" stroke-width="16"><path d="m102.125 172.839c-47.3699 62.952-54.1235 121.121-54.1235 185.963" stroke-opacity=".9"/><path d="m102.127 172.839c9.981 38.6 33.307 104.956 33.307 142.942" stroke-opacity=".9"/><path d="m239.518 264.433c-25.868 0-69.538 34.494-101.309 51.348" stroke-opacity=".9"/><path d="m244.768 263.706c4.391.233 8.625 1.741 12.878 2.861" stroke-opacity=".9"/><path d="m240.901 274.147c3.312.34 6.506 2.534 9.714 4.164" stroke-opacity=".9"/><path d="m338.919 157.733c2.02-13.469-1.898-23.492-9.215-27.854-9.289-5.538-23.524-3.233-35.53 10.265-59.871 67.306 9.191 127.289 42.11 26.921" stroke-opacity=".5"/><path d="m271.896 228.351c-15.449 23.612-30.265 51.673-45.796 74.94" stroke-opacity=".9"/></g><path d="m190.709 38.6922c4.128 1.5744 6.198 6.1973 4.624 10.3256-1.574 4.1282-6.197 6.1985-10.325 4.6241zm-83.225 82.5178-7.7619 1.937zm96.184-65.6919c-3.787-2.276-5.012-7.191-2.736-10.9779 2.276-3.787 7.191-5.0119 10.978-2.7359zm-88.422 63.7549c7.796 31.235 22.867 44.027 37.919 47.367 15.749 3.495 34.359-2.651 50.018-15.253 15.609-12.563 26.764-30.36 28.543-47.754 1.703-16.6601-5.029-34.2739-28.058-48.1149l8.242-13.7138c27.827 16.7246 38.126 40.0486 35.733 63.4557-2.319 22.673-16.388 44.072-34.429 58.592-17.992 14.48-41.459 23.302-63.515 18.408-22.754-5.049-41.214-24.002-49.9769-59.113zm69.762-65.6311c-25.8-9.8393-45.15-2.943-57.129 10.3404-12.409 13.7603-17.645 35.2106-12.633 55.2907l-15.5239 3.874c-6.2056-24.8637.0435-51.8815 16.2749-69.8799 16.661-18.4753 43.106-26.6286 74.712-14.5749z" fill="#000" fill-opacity=".9"/><path d="m200.539 121.09c.542-2.287 1.213-2.547 1.795-4.776" stroke="#000" stroke-linecap="round" stroke-linejoin="round" stroke-opacity=".9" stroke-width="16"/></svg>